<svg xmlns="http://www.w3.org/2000/svg" width="237" height="213" viewBox="0 0 237 213" version="1.1">
  <path d="M 64.500 15.042 C 8.310 29.681, 7.455 29.942, 4.310 33.366 C -1.543 39.740, -1.852 37.815, 16.506 109.296 C 25.716 145.158, 34.053 176.375, 35.032 178.666 C 36.940 183.129, 39.790 185.506, 45.039 187.011 C 47.575 187.739, 50.548 187.389, 58.093 185.477 C 63.466 184.114, 68.287 183, 68.806 183 C 69.325 183, 70 184.249, 70.305 185.777 C 70.611 187.304, 71.868 189.833, 73.098 191.398 C 77.509 197.006, 77.423 196.998, 133.718 197.027 L 185.500 197.054 187.993 201.094 C 194.179 211.117, 206.917 215.457, 219.384 211.789 C 224.944 210.154, 234.154 200.944, 235.789 195.384 C 240.274 180.138, 233.207 165.809, 218.795 160.931 L 213.500 159.139 213 100.819 C 212.527 45.651, 212.397 42.349, 210.602 39.699 C 206.605 33.803, 205.188 33.546, 173.586 33 L 144.673 32.500 141.529 20.269 C 138.163 7.175, 136.213 3.898, 130.282 1.371 C 128.512 0.617, 125.812 0.043, 124.282 0.096 C 122.752 0.149, 95.850 6.875, 64.500 15.042 M 109 7.957 C 101.025 10.047, 75.643 16.625, 52.595 22.574 C 8.490 33.958, 5.996 34.896, 4.554 40.640 C 4.092 42.481, 9.148 63.721, 21.156 110.393 C 36.491 169.997, 38.725 177.807, 41.134 180.250 C 44.299 183.459, 48.742 183.839, 56.568 181.571 C 59.281 180.785, 63.413 179.643, 65.750 179.032 L 70 177.923 70 162.461 C 70 153.958, 69.807 147, 69.572 147 C 69.337 147, 64.949 148.124, 59.822 149.497 C 54.695 150.871, 49.768 151.996, 48.873 151.997 C 47.665 151.999, 46.699 149.820, 45.123 143.536 C 43.955 138.881, 43 134.455, 43 133.700 C 43 132.808, 46.476 131.396, 52.934 129.664 C 58.398 128.199, 63.298 127, 63.822 127 C 64.347 127, 65.839 131.163, 67.138 136.250 L 69.500 145.500 69.778 126 C 69.975 112.202, 69.703 105.836, 68.848 104.230 C 67.920 102.486, 67.914 101.686, 68.820 100.780 C 70.590 99.010, 70.245 97.297, 68 96.710 C 66.900 96.423, 66 95.486, 66 94.629 C 66 93.772, 66.900 92.589, 68 92 C 69.830 91.021, 70 89.906, 70 78.885 L 70 66.841 66.750 67.587 C 61.053 68.894, 59.500 68.663, 59.500 66.509 C 59.500 64.952, 60.644 64.212, 64.750 63.114 C 68.099 62.219, 70 61.172, 70 60.224 C 70 59.043, 69.231 58.889, 66.250 59.474 C 59.273 60.843, 57.500 60.662, 57.500 58.581 C 57.500 57.086, 58.827 56.295, 63.500 55.004 L 69.500 53.347 70.007 47.738 C 70.587 41.309, 72.894 37.599, 78.017 34.851 C 81.151 33.170, 84.161 33, 110.734 33 C 133.482 33, 139.999 32.722, 139.997 31.750 C 139.993 29.663, 135.059 11.653, 133.845 9.295 C 132.693 7.057, 127.310 3.935, 124.849 4.078 C 124.107 4.121, 116.975 5.867, 109 7.957 M 79.303 39.197 C 73.959 41.779, 74 41.193, 74 115.467 C 74 164.069, 74.326 184.770, 75.117 186.316 C 78.117 192.181, 75.830 191.954, 132 191.978 L 183.500 192 183.586 185.750 C 183.764 172.777, 192.686 162.476, 206.281 159.546 L 209.063 158.946 208.781 101.391 L 208.500 43.835 205.234 40.917 L 201.968 38 141.734 38.068 C 101.427 38.113, 80.773 38.487, 79.303 39.197 M 89 72 L 89 89.041 109.750 88.770 L 130.500 88.500 130.500 72 L 130.500 55.500 109.750 55.230 L 89 54.959 89 72 M 33.679 58.495 C 28.828 59.767, 24.656 61.010, 24.409 61.257 C 23.931 61.736, 28.595 79.929, 29.404 80.738 C 29.850 81.184, 50.069 76.208, 50.858 75.458 C 51.054 75.271, 50.178 70.816, 48.911 65.559 C 46.243 54.493, 47.216 54.944, 33.679 58.495 M 136.357 66.513 C 136.037 67.345, 136.332 68.695, 137.011 69.513 C 138.843 71.721, 181.157 71.721, 182.989 69.513 C 183.668 68.695, 183.963 67.345, 183.643 66.513 C 182.772 64.241, 137.228 64.241, 136.357 66.513 M 137.200 74.200 C 135.536 75.864, 135.701 77.671, 137.582 78.393 C 138.452 78.727, 151.291 79, 166.113 79 C 189.247 79, 193.145 78.786, 193.643 77.487 C 193.963 76.655, 193.668 75.305, 192.989 74.487 C 191.953 73.239, 187.469 73, 165.078 73 C 145.662 73, 138.073 73.327, 137.200 74.200 M 44 93.949 C 38.225 95.412, 33.505 97.034, 33.511 97.554 C 33.554 101.100, 38.439 117.048, 39.376 116.700 C 39.994 116.470, 44.888 115.230, 50.250 113.944 C 56.771 112.380, 60 111.147, 60 110.220 C 60 108.034, 55.929 92.567, 55.177 91.895 C 54.805 91.563, 49.775 92.487, 44 93.949 M 89.698 102.635 C 89.314 103.019, 89 107.758, 89 113.167 L 89 123 100.535 123 L 112.070 123 111.785 112.750 L 111.500 102.500 100.948 102.218 C 95.145 102.063, 90.083 102.251, 89.698 102.635 M 121.380 107.452 C 121.074 108.251, 121.114 109.376, 121.470 109.952 C 122.364 111.399, 182.633 111.403, 183.527 109.956 C 183.882 109.382, 183.628 108.257, 182.964 107.456 C 181.161 105.285, 122.213 105.281, 121.380 107.452 M 122.200 115.200 C 120.536 116.864, 120.701 118.671, 122.582 119.393 C 123.452 119.727, 139.372 120, 157.959 120 C 186.780 120, 191.938 119.779, 193 118.500 C 193.993 117.303, 193.993 116.697, 193 115.500 C 191.938 114.220, 186.738 114, 157.578 114 C 132.328 114, 123.087 114.313, 122.200 115.200 M 89.698 139.635 C 89.314 140.019, 89 144.758, 89 150.167 L 89 160 100.535 160 L 112.070 160 111.785 149.750 L 111.500 139.500 100.948 139.218 C 95.145 139.063, 90.083 139.251, 89.698 139.635 M 121.341 144.553 C 121.008 145.423, 121.161 146.561, 121.682 147.082 C 122.249 147.649, 134.846 147.924, 153.065 147.765 C 182.745 147.507, 183.500 147.450, 183.500 145.500 C 183.500 143.549, 182.745 143.494, 152.724 143.236 C 125.427 143.001, 121.880 143.150, 121.341 144.553 M 121.380 152.452 C 121.074 153.251, 121.114 154.376, 121.470 154.952 C 122.367 156.402, 192.631 156.406, 193.527 154.956 C 193.882 154.382, 193.628 153.257, 192.964 152.456 C 191.157 150.280, 122.215 150.276, 121.380 152.452 M 207.667 171.667 C 207.300 172.033, 207 174.733, 207 177.667 L 207 183 202.582 183 C 196.624 183, 195 183.773, 195 186.607 C 195 188.865, 195.338 189, 201 189 L 207 189 207.015 194.250 C 207.033 200.333, 207.986 202.340, 210.620 201.840 C 212.140 201.551, 212.596 200.335, 213 195.491 L 213.500 189.500 219.491 189 C 224.335 188.596, 225.551 188.140, 225.840 186.620 C 226.340 183.986, 224.333 183.033, 218.250 183.015 L 213 183 213 177 C 213 171.381, 212.852 171, 210.667 171 C 209.383 171, 208.033 171.300, 207.667 171.667" stroke="none" fill="#000000" fill-rule="evenodd" />
</svg>