<svg xmlns="http://www.w3.org/2000/svg" width="888" height="792" viewBox="0 0 888 792" version="1.1">
	<path d="M 464.500 94.011 C 439.750 101.663, 418.944 107.941, 418.264 107.962 C 417.585 107.983, 416.522 105.986, 415.902 103.525 C 414.366 97.423, 411.035 94, 406.634 94 C 404.730 94, 386.307 99.175, 365.694 105.500 C 345.080 111.825, 327.930 117, 327.582 117 C 327.234 117, 327.707 115.537, 328.633 113.750 C 332.895 105.528, 329.695 93.833, 321.659 88.264 C 318.200 85.866, 316.710 85.500, 310.422 85.500 C 303.977 85.500, 302.701 85.833, 298.925 88.500 C 293.305 92.470, 290.500 97.963, 290.500 105 C 290.500 112.199, 293.327 117.624, 299.100 121.500 L 303.568 124.500 268.534 135.258 C 249.265 141.175, 231.761 146.494, 229.635 147.077 C 221.660 149.268, 219.256 154.806, 222.406 163.735 L 223.813 167.721 176.676 182.110 C 137.164 194.173, 128.987 196.983, 126.121 199.484 C 122.250 202.863, 120 207.477, 120 212.035 C 120 215.346, 254.033 654.230, 256.503 659.006 C 258.771 663.392, 263.629 666.305, 269.483 666.790 C 273.872 667.154, 279.385 665.773, 306.116 657.609 C 323.423 652.324, 337.863 648, 338.204 648 C 338.546 648, 338.982 659.587, 339.172 673.750 C 339.462 695.319, 339.785 699.987, 341.164 702.500 C 343.294 706.381, 346.779 709.594, 350.315 710.933 C 352.276 711.676, 414.204 711.995, 554.315 711.984 L 755.500 711.967 759.425 709.734 C 761.872 708.341, 764.226 705.840, 765.675 703.093 L 768 698.685 768 466.158 L 768 233.631 765.904 229.302 C 764.506 226.415, 762.394 224.143, 759.566 222.486 L 755.324 220 705.162 220 L 655 220 655 213.923 C 655 208.540, 654.666 207.512, 652.077 204.923 L 649.154 202 607.390 202 L 565.626 202 568.260 199.250 C 579.423 187.595, 572.970 167.931, 557.095 165.227 L 552.691 164.477 541.248 126.989 C 533.913 102.960, 528.963 88.384, 527.459 86.391 C 524.426 82.371, 519.311 79.988, 513.849 80.049 C 511.198 80.078, 491.928 85.530, 464.500 94.011 M 511.500 82.521 C 510.950 82.720, 490.250 89.038, 465.500 96.561 C 440.750 104.084, 419.999 110.522, 419.388 110.869 C 418.630 111.299, 419.823 116.446, 423.125 127 C 425.792 135.525, 427.980 143.730, 427.987 145.234 C 427.995 146.857, 426.882 149.153, 425.250 150.882 C 422.794 153.484, 413.165 156.645, 335.251 180.423 C 287.265 195.067, 246.655 207.319, 245.007 207.649 C 241.253 208.399, 236.626 206.546, 235.113 203.684 C 234.477 202.483, 231.830 194.484, 229.229 185.910 L 224.500 170.320 177.713 184.629 C 151.980 192.499, 129.978 199.602, 128.819 200.414 C 125.287 202.888, 123.014 207.263, 123.007 211.600 C 123.002 214.195, 147.416 295.513, 189.507 433.100 C 226.085 552.670, 256.720 652.408, 257.585 654.739 C 259.388 659.600, 262.632 662.510, 268.066 664.138 C 271.590 665.194, 274.016 664.616, 302.180 656.008 C 318.856 650.911, 333.962 646.328, 335.750 645.823 L 339 644.906 339.024 441.203 C 339.038 322.507, 339.427 235.863, 339.957 233.577 C 340.996 229.101, 343.396 225.540, 347.384 222.562 C 350.076 220.552, 351.418 220.493, 401.072 220.223 L 452 219.947 452 215.441 C 452 209.957, 454.126 204.538, 456.850 203.080 C 458.203 202.356, 472.610 202, 500.571 202 L 542.273 202 539.496 199.250 C 534.346 194.148, 532.277 184.662, 534.843 177.914 C 536.473 173.627, 541.227 168.787, 545.793 166.767 C 548.191 165.707, 549.953 164.313, 549.709 163.670 C 549.466 163.026, 544.421 146.657, 538.499 127.293 C 532.576 107.930, 526.882 90.691, 525.845 88.985 C 523.271 84.753, 515.277 81.151, 511.500 82.521 M 303.881 94.503 C 301.043 96.046, 298 101.477, 298 105 C 298 108.563, 300.816 113.460, 303.920 115.294 C 310.746 119.326, 319.520 116.015, 322.011 108.467 C 324.465 101.031, 318.537 92.965, 310.673 93.040 C 308.378 93.062, 305.322 93.720, 303.881 94.503 M 549.500 174.364 C 542.878 177.372, 540.103 184.980, 543.518 190.761 C 550.738 202.984, 569.265 194.916, 564.776 181.503 C 562.583 174.950, 555.497 171.639, 549.500 174.364 M 655 240.502 C 655 258.765, 654.958 259.133, 652.612 261.479 C 651.298 262.793, 648.711 264.141, 646.862 264.476 C 645.013 264.810, 601.773 264.953, 550.772 264.792 L 458.045 264.500 455.272 261.714 L 452.500 258.928 452.783 240.964 L 453.066 223 402.681 223 L 352.296 223 348.898 225.270 C 347.029 226.518, 344.712 229.106, 343.748 231.020 C 342.092 234.310, 342.010 247.184, 342.248 467.177 L 342.500 699.853 344.562 702.615 C 345.696 704.134, 347.866 706.304, 349.385 707.438 L 352.146 709.500 552.157 709.760 C 748.288 710.014, 752.253 709.982, 756.557 708.078 C 759.199 706.909, 761.752 704.815, 762.970 702.818 C 764.985 699.512, 764.993 698.622, 764.993 466 C 764.993 236.172, 764.962 232.450, 763.040 229.299 C 758.827 222.387, 760.019 222.533, 704.750 222.206 L 655 221.913 655 240.502" stroke="none" fill="#000000" fill-rule="evenodd"/>
</svg>